<?xml version="1.0" encoding="UTF-8" standalone="no"?>
<!-- Created with Inkscape (http://www.inkscape.org/) -->

<svg
   width="512"
   height="512"
   viewBox="0 0 512 512"
   version="1.1"
   id="svg1"
   xml:space="preserve"
   inkscape:version="1.3.2 (091e20e, 2023-11-25, custom)"
   sodipodi:docname="icon.svg"
   inkscape:export-filename="icon.png"
   inkscape:export-xdpi="100"
   inkscape:export-ydpi="100"
   xmlns:inkscape="http://www.inkscape.org/namespaces/inkscape"
   xmlns:sodipodi="http://sodipodi.sourceforge.net/DTD/sodipodi-0.dtd"
   xmlns="http://www.w3.org/2000/svg"
   xmlns:svg="http://www.w3.org/2000/svg"><sodipodi:namedview
     id="namedview1"
     pagecolor="#ffffff"
     bordercolor="#999999"
     borderopacity="1"
     inkscape:showpageshadow="0"
     inkscape:pageopacity="0"
     inkscape:pagecheckerboard="0"
     inkscape:deskcolor="#d1d1d1"
     inkscape:document-units="px"
     showgrid="false"
     inkscape:zoom="1.1890995"
     inkscape:cx="34.479874"
     inkscape:cy="220.75529"
     inkscape:window-width="1920"
     inkscape:window-height="1057"
     inkscape:window-x="-8"
     inkscape:window-y="-8"
     inkscape:window-maximized="1"
     inkscape:current-layer="g2"><inkscape:grid
       id="grid6"
       units="px"
       originx="0"
       originy="0"
       spacingx="1"
       spacingy="1"
       empcolor="#0099e5"
       empopacity="0.30196078"
       color="#0099e5"
       opacity="0.14901961"
       empspacing="5"
       dotted="false"
       gridanglex="30"
       gridanglez="30"
       visible="false" /></sodipodi:namedview><defs
     id="defs1" /><g
     id="g2"
     transform="translate(1.94865e-6,-4.9562565)"
     style="opacity:1"><g
       style="fill:#000000"
       id="g1"
       transform="matrix(0.80095135,0,0,0.80095135,10.908084,15.864862)"><g
         id="g5">
	<g
   id="g4">
		<path
   d="m 339.982,367.472 c -11.153,4.368 -22.282,6.559 -33.406,6.572 -11.125,-0.013 -22.253,-2.204 -33.406,-6.572 -7.509,-2.941 -16.038,0.023 -20.068,7.009 -30.441,52.761 -60.951,105.642 -91.51,158.608 -4.62,8.007 -1.679,18.292 6.521,22.56 43.778,22.789 91.118,34.199 138.464,34.227 47.346,-0.027 94.685,-11.437 138.464,-34.227 8.2,-4.268 11.141,-14.553 6.521,-22.56 -30.559,-52.966 -61.069,-105.846 -91.51,-158.608 -4.032,-6.985 -12.561,-9.95 -20.07,-7.009 z"
   id="path1"
   style="fill:#000000" />
		<path
   d="m 161.453,30.273 c -4.65,-8.045 -15.088,-10.593 -22.901,-5.561 -1.117,0.719 -2.228,1.446 -3.332,2.183 C 85.989,59.778 48.68,102.792 24.856,157.192 14.855,180.03 7.985,203.807 3.892,228.397 c -1.89,11.356 -3.183,23.793 -3.865,35.922 -0.524,9.322 6.93,17.156 16.267,17.156 h 183.058 c 8.013,0 14.825,-5.831 16.084,-13.745 3.759,-23.629 15.06,-42.876 33.804,-57.91 6.28,-5.037 7.957,-13.896 3.929,-20.865 z"
   id="path2"
   style="fill:#000000" />
		<path
   d="M 587.145,157.193 C 563.322,102.792 526.013,59.778 476.781,26.896 c -1.104,-0.738 -2.216,-1.465 -3.333,-2.183 -7.813,-5.031 -18.251,-2.484 -22.901,5.561 l -91.715,158.683 c -4.029,6.97 -2.351,15.828 3.929,20.865 18.743,15.035 30.045,34.281 33.804,57.91 1.259,7.914 8.071,13.745 16.084,13.745 h 183.059 c 9.337,0 16.791,-7.834 16.267,-17.156 -0.682,-12.129 -1.976,-24.566 -3.866,-35.922 -4.092,-24.591 -10.962,-48.368 -20.964,-71.206 z"
   id="path3"
   style="fill:#000000" />
		<path
   d="m 306.561,223.386 c -32.322,-0.107 -58.391,25.755 -58.57,58.103 -0.176,31.934 25.962,58.289 57.944,58.426 0.209,10e-4 0.417,-0.004 0.625,-0.005 32.056,-0.198 57.902,-26.07 58.003,-58.227 0.101,-32.061 -25.897,-58.191 -58.002,-58.297 z"
   id="path4"
   style="fill:#000000" />
	</g>
</g></g></g><g
     id="g6"
     transform="translate(-6.716354,-21.300551)"><path
       inkscape:connector-curvature="0"
       id="path172"
       style="fill:#d5d5d5;fill-opacity:1;fill-rule:nonzero;stroke:none;stroke-width:8.00515"
       d="m 455.33998,223.30495 -108.99712,7.61466 13.2249,-62.95253 49.24894,-3.44695 -8.66152,41.65066 59.74995,-4.16752 21.42959,-102.290079 -168.74725,11.782179 -38.29746,184.19896 108.99737,-7.61472 -17.79564,83.34214 -48.80077,3.41632 10.95101,-51.37714 -60.19971,4.1984 -23.71926,112.02429 168.74701,-11.78218 z" /><path
       inkscape:connector-curvature="0"
       id="path196"
       style="fill:#d5d5d5;fill-opacity:1;fill-rule:nonzero;stroke:none;stroke-width:8.00515"
       d="m 103.83636,450.71393 31.45903,-149.06413 27.36192,144.9415 51.9938,-3.63547 68.87724,-328.16407 -59.74477,4.19006 -31.47766,151.32986 -27.3615,-147.22313 -51.99404,3.63523 -68.852392,328.16413 z" /></g></svg>
